<svg width="1024" height="1024" viewBox="0 0 1024 1024" fill="none" xmlns="http://www.w3.org/2000/svg">
  <defs>
    <linearGradient id="bg2" x1="64" y1="64" x2="960" y2="960" gradientUnits="userSpaceOnUse">
      <stop offset="0" stop-color="#F7DFC2"/>
      <stop offset="1" stop-color="#E59A7B"/>
    </linearGradient>
  </defs>
  <rect x="64" y="64" width="896" height="896" rx="180" fill="url(#bg2)"/>
  <rect x="200" y="220" width="624" height="600" rx="80" fill="#F9F3E8"/>
  <rect x="200" y="220" width="624" height="120" rx="60" fill="#E6C58B"/>
  <rect x="200" y="340" width="300" height="480" rx="60" fill="#FFF9F0"/>
  <rect x="524" y="340" width="300" height="480" rx="60" fill="#FFF4E5"/>
  <rect x="492" y="340" width="40" height="480" rx="20" fill="#EAD6B9"/>
  <path d="M740 260 L800 260 L800 420 L770 392 L740 420 Z" fill="#D88C2A"/>
  <polygon points="512,360 568,448 512,536 456,448" fill="#F3C35A"/>
  <polygon points="512,390 546,448 512,506 478,448" fill="#FFF4D4"/>
  <g stroke="#C9B79E" stroke-width="18" stroke-linecap="round" opacity="0.6">
    <line x1="250" y1="430" x2="460" y2="430"/>
    <line x1="250" y1="500" x2="440" y2="500"/>
    <line x1="564" y1="430" x2="774" y2="430"/>
    <line x1="584" y1="500" x2="774" y2="500"/>
    <line x1="564" y1="570" x2="740" y2="570"/>
  </g>
</svg>
